<?xml version="1.0" encoding="UTF-8" standalone="no"?>
<!DOCTYPE svg  PUBLIC '-//W3C//DTD SVG 1.1//EN'  'http://www.w3.org/Graphics/SVG/1.1/DTD/svg11.dtd'>
<svg version="1.1" xmlns="http://www.w3.org/2000/svg">
<defs>
<font id="Interstate-Black" horiz-adv-x="826">
<font-face font-weight="500" font-family="Interstate" underline-position="-133" unicode-range="U+0020-00FE" stemh="147" descent="-200" x-height="525" units-per-em="1000" ascent="800" panose-1="0 0 0 0 0 0 0 0 0 0" cap-height="700" stemv="179" bbox="-57 -198 1050 924" underline-thickness="20"/>
<missing-glyph/>
<glyph horiz-adv-x="330" glyph-name="space" unicode=" "/>
<glyph horiz-adv-x="350" d="M274 450l-33 -200h-132l-33 200v250h198v-250zM279 93c0 -59 -44 -104 -104 -104s-104 45 -104 104s44 102 104 102s104 -43 104 -102z" glyph-name="exclam" unicode="!"/>
<glyph horiz-adv-x="620" d="M563 700l-39 -327h-135l-39 327h213zM270 700l-39 -327h-135l-39 327h213z" glyph-name="quotedbl" unicode='&quot;'/>
<glyph horiz-adv-x="800" d="M750 122h-105v-122h-182v122h-126v-122h-182v122h-105v153h105v150h-105v153h105v122h182v-122h126v122h182v-122h105v-153h-105v-150h105v-153zM474 262v176h-148v-176h148z" glyph-name="numbersign" unicode="#"/>
<glyph horiz-adv-x="661" d="M618 215c0 -126 -75 -191 -189 -212v-103h-188v101c-80 13 -153 43 -207 78l94 147c51 -35 140 -70 205 -70c69 0 91 12 91 45c0 26 -25 42 -119 64c-169 39 -250 85 -250 225c0 107 70 182 186 207v103h188v-102c71 -11 129 -36 181 -73l-94 -147 c-62 42 -124 66 -195 66c-58 0 -72 -18 -72 -43c0 -26 25 -38 115 -59c176 -42 254 -96 254 -227z" glyph-name="dollar" unicode="$"/>
<glyph horiz-adv-x="1080" d="M1050 208c0 -145 -90 -219 -208 -219s-206 72 -206 217s90 219 208 219s206 -72 206 -217zM831 700l-429 -700h-153l429 700h153zM444 494c0 -145 -90 -219 -208 -219s-206 72 -206 217s90 219 208 219s206 -72 206 -217zM903 206c0 84 -20 110 -60 110 c-42 0 -60 -24 -60 -108s20 -110 61 -110s59 24 59 108zM297 492c0 84 -20 110 -60 110c-42 0 -60 -24 -60 -108s20 -110 61 -110s59 24 59 108z" glyph-name="percent" unicode="%"/>
<glyph horiz-adv-x="722" d="M724 0h-219l-50 57c-63 -45 -133 -68 -218 -68c-119 0 -211 55 -211 189c0 91 71 159 146 201l-6 7c-35 40 -63 83 -63 137c0 126 102 188 241 188c99 0 168 -25 234 -64l-79 -144c-52 29 -97 47 -157 47c-31 0 -49 -13 -49 -30c0 -19 7 -31 23 -49l150 -174 c19 31 39 67 62 110l146 -76c-35 -59 -68 -111 -102 -156zM359 166l-98 111c-36 -25 -52 -50 -52 -75c0 -35 18 -59 76 -59c27 0 50 7 74 23z" glyph-name="ampersand" unicode="&amp;"/>
<glyph horiz-adv-x="430" d="M374 -33l-129 -77c-100 113 -187 250 -187 413c0 171 87 306 187 419l129 -77c-75 -116 -111 -205 -111 -337c0 -137 36 -225 111 -341z" glyph-name="parenleft" unicode="("/>
<glyph horiz-adv-x="430" d="M372 309c0 -171 -87 -306 -187 -419l-129 77c75 116 111 205 111 337c0 137 -36 225 -111 341l129 77c100 -113 187 -250 187 -413z" glyph-name="parenright" unicode=")"/>
<glyph horiz-adv-x="550" d="M520 397l-71 -121l-133 109l28 -169h-138l27 171l-133 -108l-70 119l170 60l-170 61l70 121l133 -110l-27 170h138l-28 -169l133 110l71 -120l-173 -62z" glyph-name="asterisk" unicode="*"/>
<glyph horiz-adv-x="646" d="M591 258h-177v-185h-182v185h-177v172h177v185h182v-185h177v-172z" glyph-name="plus" unicode="+"/>
<glyph horiz-adv-x="314" d="M276 209l-96 -333h-123l14 333h205z" glyph-name="comma" unicode=","/>
<glyph horiz-adv-x="484" d="M416 264h-348v188h348v-188z" glyph-name="hyphen" unicode="-"/>
<glyph horiz-adv-x="314" d="M272 104c0 -66 -49 -115 -115 -115s-115 49 -115 115s49 113 115 113s115 -47 115 -113z" glyph-name="period" unicode="."/>
<glyph horiz-adv-x="510" d="M526 790l-352 -880h-190l352 880h190z" glyph-name="slash" unicode="/"/>
<glyph horiz-adv-x="716" d="M675 351c0 -233 -136 -362 -318 -362s-316 127 -316 360s136 362 318 362s316 -127 316 -360zM476 349c0 128 -44 195 -119 195s-117 -65 -117 -193s44 -195 119 -195s117 65 117 193z" glyph-name="zero" unicode="0"/>
<glyph horiz-adv-x="421" d="M348 0h-190v482h-118v123c90 5 126 30 146 95h162v-700z" glyph-name="one" unicode="1"/>
<glyph horiz-adv-x="700" d="M625 0h-572c6 236 117 350 292 428c74 33 85 44 85 72c0 31 -22 48 -78 48c-70 0 -138 -24 -208 -71l-89 143c89 57 180 91 300 91c174 0 265 -70 265 -197c0 -92 -32 -148 -166 -210c-140 -65 -179 -104 -194 -146h365v-158z" glyph-name="two" unicode="2"/>
<glyph horiz-adv-x="685" d="M640 222c0 -162 -117 -233 -307 -233c-119 0 -220 41 -295 107l100 126c57 -44 122 -73 199 -73c81 0 115 23 115 71c0 49 -28 67 -99 67h-101v151h90c61 0 81 13 81 59c0 37 -28 57 -97 57c-68 0 -120 -21 -174 -60l-92 126c65 50 149 91 271 91c168 0 280 -53 280 -201 c0 -77 -45 -114 -93 -137c65 -15 122 -62 122 -151z" glyph-name="three" unicode="3"/>
<glyph horiz-adv-x="741" d="M700 120h-90v-120h-174v125h-395v142l377 433h192v-416h90v-164zM439 504c-19 -29 -38 -54 -84 -109l-10 -12c-37 -45 -66 -77 -92 -102c35 2 83 3 131 3h52v69c0 41 1 118 3 151z" glyph-name="four" unicode="4"/>
<glyph horiz-adv-x="711" d="M659 244c0 -163 -116 -255 -315 -255c-121 0 -213 33 -299 85l79 145c67 -40 150 -69 225 -69c90 0 123 33 123 89c0 54 -34 82 -94 82c-59 0 -94 -15 -129 -40l-166 56l24 363h510v-158h-353l-6 -97c39 19 81 31 151 31c151 0 250 -76 250 -232z" glyph-name="five" unicode="5"/>
<glyph horiz-adv-x="696" d="M657 241c0 -158 -121 -252 -319 -252c-176 0 -298 97 -298 290c0 185 122 432 522 432v-159c-183 0 -279 -54 -332 -135c45 25 96 41 180 41c145 0 247 -69 247 -217zM470 228c0 54 -44 87 -118 87c-86 0 -127 -33 -127 -88c0 -50 38 -85 123 -85c73 0 122 30 122 86z " glyph-name="six" unicode="6"/>
<glyph horiz-adv-x="692" d="M628 560c-205 -188 -244 -333 -244 -560h-190c2 240 68 404 203 542h-348v158h579v-140z" glyph-name="seven" unicode="7"/>
<glyph horiz-adv-x="730" d="M684 218c0 -142 -124 -229 -320 -229s-318 87 -318 229c0 90 64 136 109 154c-42 25 -79 68 -79 131c0 134 121 208 290 208s288 -74 288 -208c0 -63 -35 -101 -79 -129c45 -18 109 -66 109 -156zM468 500c0 35 -28 70 -104 70s-102 -35 -102 -70s28 -67 104 -67 s102 32 102 67zM498 220c0 48 -46 83 -134 83c-89 0 -132 -35 -132 -83s46 -84 134 -84s132 36 132 84z" glyph-name="eight" unicode="8"/>
<glyph horiz-adv-x="696" d="M656 421c0 -185 -122 -432 -522 -432v159c183 0 279 54 332 135c-45 -25 -96 -41 -180 -41c-145 0 -247 69 -247 217c0 158 121 252 319 252c176 0 298 -97 298 -290zM471 473c0 50 -38 85 -123 85c-73 0 -122 -30 -122 -86c0 -54 44 -87 118 -87c86 0 127 33 127 88z " glyph-name="nine" unicode="9"/>
<glyph horiz-adv-x="314" d="M269 426c0 -64 -48 -112 -112 -112s-112 48 -112 112s48 110 112 110s112 -46 112 -110zM269 101c0 -64 -48 -112 -112 -112s-112 48 -112 112s48 110 112 110s112 -46 112 -110z" glyph-name="colon" unicode=":"/>
<glyph horiz-adv-x="314" d="M269 426c0 -64 -48 -112 -112 -112c-65 0 -112 48 -112 112c0 65 47 110 112 110c64 0 112 -45 112 -110zM260 204l-94 -325h-119l13 325h200z" glyph-name="semicolon" unicode=";"/>
<glyph horiz-adv-x="515" d="M454 -11l-397 295v132l397 295v-234l-195 -125l195 -125v-238z" glyph-name="less" unicode="&lt;"/>
<glyph horiz-adv-x="646" d="M566 390h-486v182h486v-182zM566 116h-486v182h486v-182z" glyph-name="equal" unicode="="/>
<glyph horiz-adv-x="515" d="M458 284l-397 -295v234l195 125l-195 125v238l397 -295v-132z" glyph-name="greater" unicode="&gt;"/>
<glyph horiz-adv-x="602" d="M571 519c0 -80 -38 -123 -124 -165c-57 -28 -79 -56 -79 -104h-179c0 85 28 140 130 188c42 20 62 34 62 62c0 30 -24 48 -78 48c-71 0 -135 -27 -193 -66l-89 143c83 53 174 86 285 86c163 0 265 -64 265 -192zM381 93c0 -59 -44 -104 -104 -104s-104 45 -104 104 s44 102 104 102s104 -43 104 -102z" glyph-name="question" unicode="?"/>
<glyph horiz-adv-x="836" d="M779 360c0 -144 -55 -207 -147 -207c-57 0 -90 22 -113 49c-46 -30 -93 -47 -155 -47c-74 0 -124 46 -124 132c0 82 57 125 138 125c40 0 72 -7 95 -19v27c0 33 -21 45 -64 45c-37 0 -73 -8 -113 -26l-33 80c47 22 99 35 165 35c107 0 154 -53 154 -142v-125 c0 -42 15 -66 55 -66c51 0 68 45 68 140c0 159 -122 279 -287 279c-175 0 -287 -128 -287 -289c0 -175 123 -291 287 -291c45 0 90 9 127 27l28 -65c-52 -22 -102 -33 -155 -33c-200 0 -361 152 -361 361c0 200 152 361 361 361s361 -163 361 -351zM473 261v60 c-20 9 -46 14 -71 14c-36 0 -56 -17 -56 -46c0 -27 17 -47 56 -47c22 0 54 10 71 19z" glyph-name="at" unicode="@"/>
<glyph horiz-adv-x="762" d="M733 0h-210l-38 123h-210l-38 -123h-208l254 700h196zM438 277l-13 46c-25 90 -36 128 -45 175c-9 -47 -20 -86 -45 -175l-13 -46h116z" glyph-name="A" unicode="A"/>
<glyph horiz-adv-x="717" d="M670 226c0 -143 -87 -226 -263 -226h-336v700h338c174 0 245 -65 245 -182c0 -76 -37 -110 -84 -137c63 -27 100 -76 100 -155zM464 492c0 31 -15 55 -61 55h-146v-110h146c45 0 61 22 61 55zM480 222c0 41 -23 67 -69 67h-154v-136h153c48 0 70 29 70 69z" glyph-name="B" unicode="B"/>
<glyph horiz-adv-x="686" d="M652 170c-47 -92 -125 -181 -291 -181c-208 0 -319 154 -319 361c0 225 132 361 320 361c172 0 240 -74 288 -206l-176 -69c-25 65 -49 106 -113 106c-81 0 -116 -81 -116 -192c0 -107 34 -192 118 -192c61 0 87 33 125 99z" glyph-name="C" unicode="C"/>
<glyph horiz-adv-x="722" d="M676 354c0 -263 -130 -354 -378 -354h-227v700h245c220 0 360 -83 360 -346zM477 351c0 129 -41 183 -162 183h-48v-368h42c121 0 168 46 168 185z" glyph-name="D" unicode="D"/>
<glyph horiz-adv-x="667" d="M614 0h-543v700h536v-163h-344v-93h207v-161h-207v-120h351v-163z" glyph-name="E" unicode="E"/>
<glyph horiz-adv-x="658" d="M625 535h-361v-97h219v-164h-219v-274h-193v700h554v-165z" glyph-name="F" unicode="F"/>
<glyph horiz-adv-x="721" d="M678 299c0 -200 -110 -310 -313 -310c-192 0 -323 132 -323 361c0 207 114 361 326 361c175 0 243 -65 293 -196l-176 -69c-23 60 -51 96 -118 96c-91 0 -122 -81 -122 -192c0 -139 45 -197 135 -197c82 0 109 38 117 86v0h-127v145h308v-85z" glyph-name="G" unicode="G"/>
<glyph horiz-adv-x="756" d="M685 0h-198v276h-218v-276h-198v700h198v-255h218v255h198v-700z" glyph-name="H" unicode="H"/>
<glyph horiz-adv-x="350" d="M274 0h-198v700h198v-700z" glyph-name="I" unicode="I"/>
<glyph horiz-adv-x="690" d="M622 285c0 -183 -96 -296 -294 -296c-186 0 -269 95 -305 242l190 50c24 -80 51 -121 118 -121c62 0 93 43 93 110v430h198v-415z" glyph-name="J" unicode="J"/>
<glyph horiz-adv-x="734" d="M717 0h-230l-146 298l-72 -87v-211h-198v700h198v-82c0 -59 -1 -122 -3 -173c29 46 90 127 135 184l56 71h236l-211 -247z" glyph-name="K" unicode="K"/>
<glyph horiz-adv-x="615" d="M577 0h-506v700h196v-531h310v-169z" glyph-name="L" unicode="L"/>
<glyph horiz-adv-x="844" d="M773 0h-182v167c0 69 1 132 4 186c-21 -52 -57 -133 -81 -183l-92 -194l-92 194c-24 50 -60 131 -81 183c3 -54 4 -117 4 -186v-167h-182v700h178l86 -187c42 -90 77 -172 88 -211c12 40 44 116 88 211l86 187h176v-700z" glyph-name="M" unicode="M"/>
<glyph horiz-adv-x="756" d="M685 0h-158l-167 231c-31 43 -91 133 -109 164c5 -31 6 -124 6 -181v-214h-186v700h171l154 -207c32 -43 94 -136 109 -165c-5 31 -6 124 -6 181v191h186v-700z" glyph-name="N" unicode="N"/>
<glyph horiz-adv-x="732" d="M690 351c0 -233 -135 -362 -325 -362s-323 127 -323 360s135 362 325 362s323 -127 323 -360zM489 349c0 126 -46 193 -124 193s-122 -65 -122 -191s46 -193 124 -193s122 65 122 191z" glyph-name="O" unicode="O"/>
<glyph horiz-adv-x="679" d="M645 468c0 -178 -118 -241 -286 -241h-97v-227h-191v700h301c164 0 273 -63 273 -232zM452 465c0 46 -23 77 -85 77h-105v-157h102c63 0 88 27 88 80z" glyph-name="P" unicode="P"/>
<glyph horiz-adv-x="732" d="M690 351c0 -105 -35 -191 -90 -254l57 -74l-131 -86l-51 72c-35 -13 -72 -20 -110 -20c-190 0 -323 127 -323 360s135 362 325 362s323 -127 323 -360zM497 349c0 126 -54 193 -132 193s-122 -65 -122 -191c0 -132 44 -203 124 -203h9l-60 79l129 84l43 -62 c6 27 9 60 9 100z" glyph-name="Q" unicode="Q"/>
<glyph horiz-adv-x="716" d="M671 0h-217l-114 236h-78v-236h-191v700h313c164 0 273 -62 273 -228c0 -105 -49 -170 -126 -205zM464 467c0 44 -24 75 -85 75h-117v-153h114c63 0 88 28 88 78z" glyph-name="R" unicode="R"/>
<glyph horiz-adv-x="679" d="M628 215c0 -160 -121 -226 -289 -226c-113 0 -222 37 -295 85l94 152c51 -35 140 -70 205 -70c69 0 91 12 91 45c0 26 -25 42 -119 64c-169 39 -250 85 -250 225c0 132 107 221 276 221c119 0 205 -29 279 -81l-94 -152c-62 42 -124 66 -195 66c-58 0 -72 -18 -72 -43 c0 -26 25 -38 115 -59c176 -42 254 -96 254 -227z" glyph-name="S" unicode="S"/>
<glyph horiz-adv-x="670" d="M628 531h-196v-531h-194v531h-196v169h586v-169z" glyph-name="T" unicode="T"/>
<glyph horiz-adv-x="748" d="M681 299c0 -222 -133 -310 -309 -310s-305 88 -305 310v401h198v-401c0 -86 34 -139 110 -139s108 53 108 139v401h198v-401z" glyph-name="U" unicode="U"/>
<glyph horiz-adv-x="736" d="M707 700l-241 -700h-196l-241 700h218l51 -188c24 -87 58 -229 71 -296c13 67 47 208 71 296l51 188h216z" glyph-name="V" unicode="V"/>
<glyph horiz-adv-x="926" d="M888 700l-167 -700h-179l-32 152c-23 108 -44 239 -48 290c-4 -51 -25 -182 -48 -290l-32 -152h-177l-167 700h200l19 -117c16 -99 35 -221 42 -304c8 82 30 203 52 303l24 118h178l24 -118c22 -100 44 -221 52 -303c7 83 26 205 42 304l19 117h198z" glyph-name="W" unicode="W"/>
<glyph horiz-adv-x="732" d="M703 0h-225l-47 81c-25 44 -50 91 -67 129c-16 -37 -42 -85 -68 -129l-47 -81h-220l229 354l-221 346h225l39 -68c25 -44 52 -91 67 -128c16 37 43 84 68 128l39 68h220l-221 -342z" glyph-name="X" unicode="X"/>
<glyph horiz-adv-x="746" d="M730 700l-259 -439v-261h-196v258l-259 442h224l54 -106c37 -73 67 -140 80 -181c13 41 43 108 80 181l54 106h222z" glyph-name="Y" unicode="Y"/>
<glyph horiz-adv-x="710" d="M640 0h-574v139l205 250c44 53 106 121 138 156c-54 -2 -142 -3 -208 -3h-115v158h552v-139l-205 -250c-44 -53 -106 -121 -138 -156c54 2 142 3 208 3h137v-158z" glyph-name="Z" unicode="Z"/>
<glyph horiz-adv-x="463" d="M384 -110h-305v810h305v-147h-124v-516h124v-147z" glyph-name="bracketleft" unicode="["/>
<glyph horiz-adv-x="510" d="M526 -90h-190l-352 880h190z" glyph-name="backslash" unicode="\"/>
<glyph horiz-adv-x="463" d="M384 -110h-305v147h124v516h-124v147h305v-810z" glyph-name="bracketright" unicode="]"/>
<glyph horiz-adv-x="620" d="M595 362h-188l-98 183l-98 -183h-186l205 338h160z" glyph-name="asciicircum" unicode="^"/>
<glyph horiz-adv-x="500" d="M500 -198h-500v137h500v-137z" glyph-name="underscore" unicode="_"/>
<glyph horiz-adv-x="558" d="M506 0h-170v35c-34 -26 -80 -46 -128 -46c-102 0 -170 63 -170 181c0 113 78 171 189 171c48 0 80 -9 109 -22v26c0 46 -25 62 -74 62c-54 0 -95 -10 -146 -38l-47 119c64 31 135 48 226 48c147 0 211 -73 211 -195v-341zM336 142v72c-20 9 -43 15 -77 15 c-37 0 -56 -20 -56 -56c0 -33 17 -57 56 -57c30 0 60 12 77 26z" glyph-name="a" unicode="a"/>
<glyph horiz-adv-x="572" d="M535 264c0 -188 -67 -275 -182 -275c-52 0 -88 24 -117 46v-35h-180v657l180 72v-241c36 28 69 48 124 48c99 0 175 -77 175 -272zM357 258c0 105 -19 130 -57 130c-26 0 -45 -10 -64 -25v-201c19 -15 37 -25 65 -25c37 0 56 23 56 121z" glyph-name="b" unicode="b"/>
<glyph horiz-adv-x="520" d="M492 114c-61 -90 -118 -125 -211 -125c-154 0 -246 98 -246 275c0 161 82 272 250 272c99 0 156 -46 202 -120l-124 -94c-25 46 -42 68 -81 68c-46 0 -69 -46 -69 -129s25 -126 74 -126c34 0 58 19 91 68z" glyph-name="c" unicode="c"/>
<glyph horiz-adv-x="572" d="M516 0h-181v37c-35 -28 -69 -48 -124 -48c-98 0 -174 77 -174 272c0 188 67 275 181 275c53 0 88 -24 117 -46v167l181 72v-729zM335 162v201c-18 15 -36 25 -64 25c-37 0 -57 -23 -57 -121c0 -105 20 -130 58 -130c26 0 45 10 63 25z" glyph-name="d" unicode="d"/>
<glyph horiz-adv-x="544" d="M509 246c0 -15 0 -26 -1 -35h-308c6 -58 40 -84 89 -84c46 0 84 10 136 37l69 -115c-65 -38 -132 -60 -214 -60c-158 0 -245 112 -245 273c0 181 102 274 240 274c144 0 234 -95 234 -290zM350 323c-9 53 -27 80 -80 80c-41 0 -64 -28 -70 -80h150z" glyph-name="e" unicode="e"/>
<glyph horiz-adv-x="383" d="M354 588c-15 7 -33 11 -52 11c-27 0 -36 -9 -36 -33v-41h81v-141h-78v-384h-177v384h-56v141h56v51c0 108 46 150 148 150c47 0 89 -9 114 -22v-116z" glyph-name="f" unicode="f"/>
<glyph horiz-adv-x="572" d="M516 79c0 -180 -84 -245 -274 -272l-66 104c128 21 159 41 159 113v18c-35 -28 -69 -48 -124 -48c-98 0 -174 72 -174 267c0 188 67 275 181 275c53 0 88 -24 117 -46v35h181v-446zM335 162v201c-18 15 -36 25 -64 25c-37 0 -57 -23 -57 -121c0 -105 20 -130 58 -130 c26 0 45 10 63 25z" glyph-name="g" unicode="g"/>
<glyph horiz-adv-x="590" d="M538 0h-181v298c0 68 -23 86 -60 86c-38 0 -61 -18 -61 -84v-300h-180v657l180 72v-239c33 25 70 46 132 46c115 0 170 -77 170 -215v-321z" glyph-name="h" unicode="h"/>
<glyph horiz-adv-x="302" d="M256 652c0 -55 -43 -89 -105 -89c-59 0 -103 34 -103 89c0 51 44 87 103 87c62 0 105 -36 105 -87zM241 0h-180v525h180v-525z" glyph-name="i" unicode="i"/>
<glyph horiz-adv-x="302" d="M256 652c0 -55 -43 -89 -105 -89c-59 0 -103 34 -103 89c0 51 44 87 103 87c62 0 105 -36 105 -87zM241 50c0 -164 -70 -223 -236 -243l-60 124c89 12 116 38 116 109v485h180v-475z" glyph-name="j" unicode="j"/>
<glyph horiz-adv-x="574" d="M556 0h-194l-79 219l-47 -60v-159h-180v657l180 72v-214c0 -35 -2 -116 -3 -149c13 25 57 85 79 114l35 45h205l-136 -158z" glyph-name="k" unicode="k"/>
<glyph horiz-adv-x="302" d="M241 0h-180v657l180 72v-729z" glyph-name="l" unicode="l"/>
<glyph horiz-adv-x="880" d="M828 0h-181v298c0 68 -21 86 -57 86c-37 0 -58 -18 -58 -84v-300h-180v298c0 68 -22 86 -58 86c-37 0 -58 -18 -58 -84v-300h-180v525h180v-35c29 24 68 46 125 46c72 0 112 -23 145 -59c38 31 81 59 153 59c118 0 169 -77 169 -215v-321z" glyph-name="m" unicode="m"/>
<glyph horiz-adv-x="590" d="M538 0h-181v298c0 68 -23 86 -60 86c-38 0 -61 -18 -61 -84v-300h-180v525h180v-35c33 25 70 46 132 46c115 0 170 -77 170 -215v-321z" glyph-name="n" unicode="n"/>
<glyph horiz-adv-x="569" d="M534 263c0 -181 -105 -274 -250 -274s-249 93 -249 274c0 183 104 273 249 273s250 -90 250 -273zM355 263c0 89 -24 127 -71 127s-71 -38 -71 -127c0 -87 24 -128 71 -128s71 41 71 128z" glyph-name="o" unicode="o"/>
<glyph horiz-adv-x="572" d="M535 264c0 -188 -67 -275 -182 -275c-52 0 -88 24 -117 46v-156l-180 -72v718h180v-37c36 28 69 48 124 48c99 0 175 -77 175 -272zM357 258c0 105 -19 130 -57 130c-26 0 -45 -10 -64 -25v-201c19 -15 37 -25 65 -25c37 0 56 23 56 121z" glyph-name="p" unicode="p"/>
<glyph horiz-adv-x="572" d="M516 -121l-181 -72v230c-35 -28 -69 -48 -124 -48c-98 0 -174 77 -174 272c0 188 67 275 181 275c53 0 88 -24 117 -46v35h181v-646zM335 162v201c-18 15 -36 25 -64 25c-37 0 -57 -23 -57 -121c0 -105 20 -130 58 -130c26 0 45 10 63 25z" glyph-name="q" unicode="q"/>
<glyph horiz-adv-x="448" d="M433 514l-42 -187c-23 25 -49 44 -84 44c-44 0 -71 -21 -71 -85v-286h-180v525h180v-38c31 30 66 49 112 49c38 0 64 -9 85 -22z" glyph-name="r" unicode="r"/>
<glyph horiz-adv-x="523" d="M479 166c0 -121 -83 -177 -217 -177c-77 0 -152 17 -219 43l42 136c63 -28 135 -46 181 -46c35 0 48 8 48 24c0 17 -8 24 -42 33c-162 43 -218 76 -218 185c0 108 71 172 214 172c79 0 132 -13 202 -38l-40 -139c-69 30 -121 44 -167 44c-35 0 -44 -7 -44 -23 s6 -22 52 -36c148 -39 208 -74 208 -178z" glyph-name="s" unicode="s"/>
<glyph horiz-adv-x="450" d="M401 170l-23 -153c-35 -17 -79 -28 -130 -28c-95 0 -139 48 -139 167v228h-80v141h80v133l175 71v-204h114v-141h-114v-190c0 -40 15 -52 45 -52c24 0 44 9 72 28z" glyph-name="t" unicode="t"/>
<glyph horiz-adv-x="590" d="M534 0h-181v35c-32 -25 -70 -46 -131 -46c-115 0 -170 77 -170 215v321h181v-298c0 -68 23 -86 60 -86s60 18 60 84v300h181v-525z" glyph-name="u" unicode="u"/>
<glyph horiz-adv-x="571" d="M556 525l-182 -525h-177l-182 525h191l47 -193c11 -44 26 -107 32 -157c7 50 22 113 33 157l48 193h190z" glyph-name="v" unicode="v"/>
<glyph horiz-adv-x="741" d="M724 525l-148 -525h-146l-22 107c-12 60 -33 176 -39 214c-7 -38 -26 -153 -40 -216l-22 -105h-142l-148 525h174l15 -78c11 -60 28 -176 34 -214c7 38 28 153 41 216l17 76h148l16 -76c13 -63 34 -178 41 -216c6 38 23 154 35 214l14 78h172z" glyph-name="w" unicode="w"/>
<glyph horiz-adv-x="574" d="M560 0h-196l-26 48c-17 31 -39 73 -55 110c-17 -37 -38 -79 -55 -110l-27 -48h-186l179 274l-159 251h196l6 -12c16 -32 42 -81 54 -118c14 38 40 86 56 118l6 12h187l-161 -243z" glyph-name="x" unicode="x"/>
<glyph horiz-adv-x="590" d="M575 525l-254 -710h-172l66 163l-200 547h191l50 -187c12 -44 34 -137 40 -187c7 50 29 143 41 189l49 185h189z" glyph-name="y" unicode="y"/>
<glyph horiz-adv-x="565" d="M508 0h-456v125l115 125c44 48 101 106 129 133c-33 -1 -91 -4 -135 -4h-97v146h444v-125l-115 -125c-43 -47 -101 -106 -129 -133c33 1 91 4 135 4h109v-146z" glyph-name="z" unicode="z"/>
<glyph horiz-adv-x="510" d="M456 -110c-221 0 -316 72 -316 209v75c0 37 -27 49 -59 49h-34v150h34c32 0 59 12 59 49v74c0 137 95 209 316 209v-116c-96 -11 -117 -44 -117 -120v-24c0 -118 -47 -133 -126 -147c79 -14 126 -30 126 -148v-24c0 -76 21 -109 117 -120v-116z" glyph-name="braceleft" unicode="{"/>
<glyph horiz-adv-x="324" d="M251 -185h-178v985h178v-985z" glyph-name="bar" unicode="|"/>
<glyph horiz-adv-x="510" d="M463 222h-34c-32 0 -59 -12 -59 -49v-74c0 -137 -95 -209 -316 -209v116c96 11 117 44 117 120v24c0 118 47 133 126 147c-79 14 -126 30 -126 148v24c0 76 -21 109 -117 120v116c221 0 316 -72 316 -209v-75c0 -37 27 -49 59 -49h34v-150z" glyph-name="braceright" unicode="}"/>
<glyph horiz-adv-x="582" d="M537 437c-53 -129 -95 -175 -159 -175c-41 0 -53 10 -90 32c-45 27 -60 35 -73 35c-20 0 -28 -8 -61 -72l-109 48c53 129 95 175 159 175c41 0 53 -10 90 -32c45 -27 60 -35 73 -35c20 0 28 8 61 72z" glyph-name="asciitilde" unicode="~"/>
<glyph horiz-adv-x="350" d="M279 607c0 -59 -44 -102 -104 -102s-104 43 -104 102s44 104 104 104s104 -45 104 -104zM274 0h-198v250l33 200h132l33 -200v-250z" glyph-name="exclamdown" unicode="¡"/>
<glyph horiz-adv-x="520" d="M492 207c-42 -62 -82 -98 -133 -114v-104h-174v108c-95 34 -150 124 -150 260c0 125 49 220 150 256v98h174v-92c56 -18 95 -57 128 -110l-124 -94c-25 46 -42 68 -81 68c-46 0 -69 -46 -69 -129s25 -126 74 -126c34 0 58 19 91 68z" glyph-name="cent" unicode="¢"/>
<glyph horiz-adv-x="694" d="M649 634l-82 -141c-64 43 -124 60 -192 60c-56 0 -79 -22 -79 -53c0 -17 5 -30 15 -46c12 -20 23 -40 31 -60h153v-135h-144c-9 -47 -28 -82 -52 -111h334v-148h-552v117c50 36 82 76 92 142h-92v135h76c-6 13 -13 25 -21 39c-17 29 -30 62 -30 99c0 111 91 179 271 179 c98 0 193 -25 272 -77z" glyph-name="sterling" unicode="£"/>
<glyph horiz-adv-x="726" d="M710 700l-254 -444v-17h160v-145h-160v-94h-186v94h-160v145h160v14l-254 447h224l50 -106c35 -75 61 -140 74 -181c13 42 40 109 74 181l50 106h222z" glyph-name="yen" unicode="¥"/>
<glyph horiz-adv-x="722" d="M667 261c0 -76 -40 -128 -102 -171c12 -24 16 -50 16 -81c0 -97 -70 -173 -224 -173c-86 0 -182 27 -235 61l59 136c53 -30 120 -52 185 -52c39 0 48 9 48 22c0 18 -6 29 -82 54c-228 74 -277 108 -277 229c0 76 40 128 101 171c-11 24 -15 50 -15 81 c0 97 70 173 224 173c86 0 182 -27 235 -61l-59 -136c-53 30 -120 52 -185 52c-39 0 -48 -9 -48 -22c0 -18 6 -29 82 -54c228 -74 277 -108 277 -229zM490 246c0 34 -19 50 -132 86c-35 11 -65 22 -90 34c-24 -18 -36 -37 -36 -65c0 -34 19 -50 132 -86 c35 -11 65 -22 90 -34c24 18 36 37 36 65z" glyph-name="section" unicode="§"/>
<glyph d="M811 354l-159 -137c-16 -13 -30 -14 -40 -7c-13 9 -15 21 -10 43l8 36h-132v-113l36 8c23 5 34 3 43 -10c7 -10 6 -24 -7 -40l-137 -159l-137 159c-13 16 -14 30 -7 40c9 13 20 15 43 10l36 -8v113h-132l8 -36c5 -23 3 -34 -10 -43c-10 -7 -24 -6 -40 7l-159 137l159 137 c16 13 30 14 40 7c13 -9 15 -20 10 -43l-8 -36h132v105l-36 -8c-23 -5 -34 -3 -43 10c-7 10 -6 24 7 40l137 159l137 -159c13 -16 14 -30 7 -40c-9 -13 -20 -15 -43 -10l-36 8v-105h132l-8 36c-5 23 -3 34 10 43c10 7 24 6 40 -7z" glyph-name="currency" unicode="¤"/>
<glyph horiz-adv-x="343" d="M281 700l-39 -327h-141l-39 327h219z" glyph-name="quotesingle" unicode="&apos;"/>
<glyph horiz-adv-x="694" d="M653 0h-195l-127 262l127 263h195l-131 -262zM352 0h-195l-127 262l127 263h195l-131 -262z" glyph-name="guillemotleft" unicode="«"/>
<glyph horiz-adv-x="314" d="M272 367c0 -66 -49 -115 -115 -115s-115 49 -115 115s49 113 115 113s115 -47 115 -113z" glyph-name="periodcentered" unicode="·"/>
<glyph horiz-adv-x="724" d="M645 -185h-139v768h-59v-768h-139v446h-44c-123 0 -227 79 -227 220c0 140 105 219 227 219h381v-885z" glyph-name="paragraph" unicode="¶"/>
<glyph horiz-adv-x="694" d="M664 263l-127 -263h-195l131 262l-131 263h195zM363 263l-127 -263h-195l131 262l-131 263h195z" glyph-name="guillemotright" unicode="»"/>
<glyph horiz-adv-x="602" d="M429 607c0 -59 -44 -102 -104 -102s-104 43 -104 102s44 104 104 104s104 -45 104 -104zM581 75c-83 -53 -174 -86 -285 -86c-163 0 -265 64 -265 192c0 80 38 123 124 165c57 28 79 56 79 104h179c0 -85 -28 -140 -130 -188c-42 -20 -62 -34 -62 -62 c0 -30 24 -48 78 -48c71 0 135 27 193 66z" glyph-name="questiondown" unicode="¿"/>
<glyph horiz-adv-x="500" d="M376 595h-128l-157 160h213z" glyph-name="grave" unicode="`"/>
<glyph horiz-adv-x="500" d="M409 755l-157 -160h-128l72 160h213z" glyph-name="acute" unicode="´"/>
<glyph horiz-adv-x="500" d="M413 610h-326v115h326v-115z" glyph-name="macron" unicode="¯"/>
<glyph horiz-adv-x="500" d="M458 686c0 -46 -42 -86 -88 -86c-48 0 -90 40 -90 86c0 49 42 88 90 88c46 0 88 -39 88 -88zM220 686c0 -46 -42 -86 -89 -86s-89 40 -89 86c0 49 42 88 89 88s89 -39 89 -88z" glyph-name="dieresis" unicode="¨"/>
<glyph horiz-adv-x="500" d="M370 -106c0 -54 -39 -87 -111 -87c-57 0 -106 16 -147 36l19 46c37 -17 72 -24 101 -24c28 0 46 9 46 27c0 15 -9 23 -22 23c-15 0 -25 -6 -37 -14l-38 26l20 73h61l-12 -42c10 5 26 9 42 9c50 0 78 -29 78 -73z" glyph-name="cedilla" unicode="¸"/>
<glyph horiz-adv-x="1071" d="M1018 0h-506v76h-242l-47 -76h-209l470 700h527v-163h-324v-93h187v-161h-187v-120h331v-163zM514 492c-20 -45 -56 -108 -85 -156l-68 -114h151v115c0 41 2 127 2 155z" glyph-name="AE" unicode="Æ"/>
<glyph horiz-adv-x="500" d="M433 276h-138v29c-27 -21 -64 -37 -103 -37c-83 0 -138 51 -138 146c0 92 63 139 153 139c39 0 65 -8 88 -18v21c0 37 -20 50 -60 50c-43 0 -76 -8 -118 -31l-38 97c52 25 109 39 183 39c119 0 171 -60 171 -158v-277zM295 391v59c-16 7 -34 12 -62 12 c-30 0 -45 -16 -45 -45c0 -27 13 -47 45 -47c24 0 49 10 62 21z" glyph-name="ordfeminine" unicode="ª"/>
<glyph horiz-adv-x="732" d="M705 750l-89 -150c47 -60 74 -144 74 -249c0 -233 -135 -362 -325 -362c-36 0 -70 5 -102 14l-31 -53h-208l90 153c-46 59 -72 142 -72 246c0 233 135 362 325 362c35 0 68 -4 99 -13l31 52h208zM489 349c0 126 -46 193 -124 193s-122 -65 -122 -191s46 -193 124 -193 s122 65 122 191z" glyph-name="Oslash" unicode="Ø"/>
<glyph horiz-adv-x="502" d="M453 490c0 -147 -85 -222 -202 -222s-202 75 -202 222c0 148 85 221 202 221s202 -73 202 -221zM309 490c0 72 -20 103 -58 103s-58 -31 -58 -103c0 -71 20 -104 58 -104s58 33 58 104z" glyph-name="ordmasculine" unicode="º"/>
<glyph horiz-adv-x="847" d="M812 246c0 -15 0 -26 -1 -35h-308c6 -58 40 -84 89 -84c46 0 84 10 136 37l69 -115c-65 -38 -132 -60 -214 -60c-81 0 -132 32 -162 75c-45 -46 -110 -75 -193 -75c-128 0 -190 63 -190 181c0 113 78 171 189 171c48 0 80 -9 109 -22v26c0 46 -25 62 -74 62 c-54 0 -95 -10 -146 -38l-47 119c64 31 136 48 221 48c75 0 120 -23 146 -64c33 41 81 64 147 64c138 0 229 -95 229 -290zM653 323c-9 53 -27 80 -80 80c-41 0 -64 -28 -70 -80h150zM336 142v72c-20 9 -43 15 -77 15c-37 0 -56 -20 -56 -56c0 -33 17 -57 56 -57 c30 0 60 12 77 26z" glyph-name="ae" unicode="æ"/>
<glyph horiz-adv-x="569" d="M550 575l-73 -123c36 -45 57 -108 57 -189c0 -181 -105 -274 -250 -274c-27 0 -53 3 -76 10l-29 -49h-163l74 125c-35 46 -55 108 -55 188c0 183 104 273 249 273c26 0 51 -3 74 -9l29 48h163zM355 263c0 89 -24 127 -71 127s-71 -38 -71 -127c0 -87 24 -128 71 -128 s71 41 71 128z" glyph-name="oslash" unicode="ø"/>
<glyph horiz-adv-x="601" d="M566 234c0 -154 -89 -234 -261 -234h-15v141h15c56 0 84 29 84 90c0 66 -33 90 -93 90h-6v136h6c34 0 47 20 47 54c0 48 -16 69 -55 69c-38 0 -52 -27 -52 -84v-617l-180 -72v684c0 163 92 235 232 235c126 0 224 -57 224 -185c0 -79 -39 -114 -84 -139 c67 -15 138 -61 138 -168z" glyph-name="germandbls" unicode="ß"/>
<glyph horiz-adv-x="742" d="M696 354c0 -263 -130 -354 -378 -354h-227v285h-61v150h61v265h245c220 0 360 -83 360 -346zM497 351c0 129 -41 183 -162 183h-58v-99h88v-150h-88v-119h52c121 0 168 46 168 185z" glyph-name="Eth" unicode="Ð"/>
<glyph horiz-adv-x="569" d="M534 267c0 -202 -120 -278 -250 -278s-249 84 -249 239c0 157 115 233 209 233c65 0 105 -13 137 -43c-8 39 -29 73 -58 101l-40 -42l-72 59l32 33c-29 12 -62 19 -96 21v121c74 0 138 -15 191 -43l42 43l72 -59l-38 -39c79 -77 120 -197 120 -346zM355 228 c0 65 -29 92 -71 92s-71 -27 -71 -92c0 -63 29 -93 71 -93s71 30 71 93z" glyph-name="eth" unicode="ð"/>
<glyph horiz-adv-x="746" d="M730 700l-259 -439v-261h-196v258l-259 442h224l54 -106c37 -73 67 -140 80 -181c13 41 43 108 80 181l54 106h222zM591 903l-157 -160h-128l72 160h213z" glyph-name="Yacute" unicode="Ý"/>
<glyph horiz-adv-x="590" d="M575 525l-254 -710h-172l66 163l-200 547h191l50 -187c12 -44 34 -137 40 -187c7 50 29 143 41 189l49 185h189zM519 745l-157 -160h-128l72 160h213z" glyph-name="yacute" unicode="ý"/>
<glyph horiz-adv-x="679" d="M645 364c0 -178 -118 -241 -286 -241h-97v-123h-191v700h191v-104h110c164 0 273 -63 273 -232zM452 361c0 46 -23 77 -85 77h-105v-157h102c63 0 88 27 88 80z" glyph-name="Thorn" unicode="Þ"/>
<glyph horiz-adv-x="572" d="M535 264c0 -188 -67 -275 -182 -275c-52 0 -88 24 -117 46v-156l-180 -72v850l180 72v-241c36 28 69 48 124 48c99 0 175 -77 175 -272zM357 258c0 105 -19 130 -57 130c-26 0 -45 -10 -64 -25v-201c19 -15 37 -25 65 -25c37 0 56 23 56 121z" glyph-name="thorn" unicode="þ"/>
<glyph d="M811 354l-159 -137c-16 -13 -30 -14 -40 -7c-13 9 -15 21 -10 43l8 36h-132v-113l36 8c23 5 34 3 43 -10c7 -10 6 -24 -7 -40l-137 -159l-137 159c-13 16 -14 30 -7 40c9 13 20 15 43 10l36 -8v113h-132l8 -36c5 -23 3 -34 -10 -43c-10 -7 -24 -6 -40 7l-159 137l159 137 c16 13 30 14 40 7c13 -9 15 -20 10 -43l-8 -36h132v105l-36 -8c-23 -5 -34 -3 -43 10c-7 10 -6 24 7 40l137 159l137 -159c13 -16 14 -30 7 -40c-9 -13 -20 -15 -43 -10l-36 8v-105h132l-8 36c-5 23 -3 34 10 43c10 7 24 6 40 -7z" glyph-name="onehalf" unicode="½"/>
<glyph d="M811 354l-159 -137c-16 -13 -30 -14 -40 -7c-13 9 -15 21 -10 43l8 36h-132v-113l36 8c23 5 34 3 43 -10c7 -10 6 -24 -7 -40l-137 -159l-137 159c-13 16 -14 30 -7 40c9 13 20 15 43 10l36 -8v113h-132l8 -36c5 -23 3 -34 -10 -43c-10 -7 -24 -6 -40 7l-159 137l159 137 c16 13 30 14 40 7c13 -9 15 -20 10 -43l-8 -36h132v105l-36 -8c-23 -5 -34 -3 -43 10c-7 10 -6 24 7 40l137 159l137 -159c13 -16 14 -30 7 -40c-9 -13 -20 -15 -43 -10l-36 8v-105h132l-8 36c-5 23 -3 34 10 43c10 7 24 6 40 -7z" glyph-name="onequarter" unicode="¼"/>
<glyph d="M811 354l-159 -137c-16 -13 -30 -14 -40 -7c-13 9 -15 21 -10 43l8 36h-132v-113l36 8c23 5 34 3 43 -10c7 -10 6 -24 -7 -40l-137 -159l-137 159c-13 16 -14 30 -7 40c9 13 20 15 43 10l36 -8v113h-132l8 -36c5 -23 3 -34 -10 -43c-10 -7 -24 -6 -40 7l-159 137l159 137 c16 13 30 14 40 7c13 -9 15 -20 10 -43l-8 -36h132v105l-36 -8c-23 -5 -34 -3 -43 10c-7 10 -6 24 7 40l137 159l137 -159c13 -16 14 -30 7 -40c-9 -13 -20 -15 -43 -10l-36 8v-105h132l-8 36c-5 23 -3 34 10 43c10 7 24 6 40 -7z" glyph-name="onesuperior" unicode="¹"/>
<glyph d="M811 354l-159 -137c-16 -13 -30 -14 -40 -7c-13 9 -15 21 -10 43l8 36h-132v-113l36 8c23 5 34 3 43 -10c7 -10 6 -24 -7 -40l-137 -159l-137 159c-13 16 -14 30 -7 40c9 13 20 15 43 10l36 -8v113h-132l8 -36c5 -23 3 -34 -10 -43c-10 -7 -24 -6 -40 7l-159 137l159 137 c16 13 30 14 40 7c13 -9 15 -20 10 -43l-8 -36h132v105l-36 -8c-23 -5 -34 -3 -43 10c-7 10 -6 24 7 40l137 159l137 -159c13 -16 14 -30 7 -40c-9 -13 -20 -15 -43 -10l-36 8v-105h132l-8 36c-5 23 -3 34 10 43c10 7 24 6 40 -7z" glyph-name="threequarters" unicode="¾"/>
<glyph d="M811 354l-159 -137c-16 -13 -30 -14 -40 -7c-13 9 -15 21 -10 43l8 36h-132v-113l36 8c23 5 34 3 43 -10c7 -10 6 -24 -7 -40l-137 -159l-137 159c-13 16 -14 30 -7 40c9 13 20 15 43 10l36 -8v113h-132l8 -36c5 -23 3 -34 -10 -43c-10 -7 -24 -6 -40 7l-159 137l159 137 c16 13 30 14 40 7c13 -9 15 -20 10 -43l-8 -36h132v105l-36 -8c-23 -5 -34 -3 -43 10c-7 10 -6 24 7 40l137 159l137 -159c13 -16 14 -30 7 -40c-9 -13 -20 -15 -43 -10l-36 8v-105h132l-8 36c-5 23 -3 34 10 43c10 7 24 6 40 -7z" glyph-name="threesuperior" unicode="³"/>
<glyph d="M811 354l-159 -137c-16 -13 -30 -14 -40 -7c-13 9 -15 21 -10 43l8 36h-132v-113l36 8c23 5 34 3 43 -10c7 -10 6 -24 -7 -40l-137 -159l-137 159c-13 16 -14 30 -7 40c9 13 20 15 43 10l36 -8v113h-132l8 -36c5 -23 3 -34 -10 -43c-10 -7 -24 -6 -40 7l-159 137l159 137 c16 13 30 14 40 7c13 -9 15 -20 10 -43l-8 -36h132v105l-36 -8c-23 -5 -34 -3 -43 10c-7 10 -6 24 7 40l137 159l137 -159c13 -16 14 -30 7 -40c-9 -13 -20 -15 -43 -10l-36 8v-105h132l-8 36c-5 23 -3 34 10 43c10 7 24 6 40 -7z" glyph-name="twosuperior" unicode="²"/>
<glyph d="M811 354l-159 -137c-16 -13 -30 -14 -40 -7c-13 9 -15 21 -10 43l8 36h-132v-113l36 8c23 5 34 3 43 -10c7 -10 6 -24 -7 -40l-137 -159l-137 159c-13 16 -14 30 -7 40c9 13 20 15 43 10l36 -8v113h-132l8 -36c5 -23 3 -34 -10 -43c-10 -7 -24 -6 -40 7l-159 137l159 137 c16 13 30 14 40 7c13 -9 15 -20 10 -43l-8 -36h132v105l-36 -8c-23 -5 -34 -3 -43 10c-7 10 -6 24 7 40l137 159l137 -159c13 -16 14 -30 7 -40c-9 -13 -20 -15 -43 -10l-36 8v-105h132l-8 36c-5 23 -3 34 10 43c10 7 24 6 40 -7z" glyph-name="brokenbar" unicode="¦"/>
<glyph d="M811 354l-159 -137c-16 -13 -30 -14 -40 -7c-13 9 -15 21 -10 43l8 36h-132v-113l36 8c23 5 34 3 43 -10c7 -10 6 -24 -7 -40l-137 -159l-137 159c-13 16 -14 30 -7 40c9 13 20 15 43 10l36 -8v113h-132l8 -36c5 -23 3 -34 -10 -43c-10 -7 -24 -6 -40 7l-159 137l159 137 c16 13 30 14 40 7c13 -9 15 -20 10 -43l-8 -36h132v105l-36 -8c-23 -5 -34 -3 -43 10c-7 10 -6 24 7 40l137 159l137 -159c13 -16 14 -30 7 -40c-9 -13 -20 -15 -43 -10l-36 8v-105h132l-8 36c-5 23 -3 34 10 43c10 7 24 6 40 -7z" glyph-name="multiply" unicode="×"/>
<glyph horiz-adv-x="762" d="M733 0h-210l-38 123h-210l-38 -123h-208l254 700h196zM438 277l-13 46c-25 90 -36 128 -45 175c-9 -47 -20 -86 -45 -175l-13 -46h116zM590 836c0 -46 -42 -86 -88 -86c-48 0 -90 40 -90 86c0 49 42 88 90 88c46 0 88 -39 88 -88zM352 836c0 -46 -42 -86 -89 -86 s-89 40 -89 86c0 49 42 88 89 88s89 -39 89 -88z" glyph-name="Adieresis" unicode="Ä"/>
<glyph horiz-adv-x="762" d="M733 0h-210l-38 123h-210l-38 -123h-208l238 657c-17 23 -28 52 -28 84c0 79 63 139 142 139s142 -60 142 -139c0 -32 -10 -61 -28 -84zM436 741c0 36 -21 60 -55 60s-55 -24 -55 -60s21 -59 55 -59s55 23 55 59zM438 277l-13 46c-25 90 -36 128 -45 175 c-9 -47 -20 -86 -45 -175l-13 -46h116z" glyph-name="Aring" unicode="Å"/>
<glyph horiz-adv-x="686" d="M652 170c-46 -89 -121 -176 -277 -181l-9 -31c10 5 26 9 42 9c50 0 78 -29 78 -73c0 -54 -39 -87 -111 -87c-57 0 -106 16 -147 36l19 46c37 -17 72 -24 101 -24c28 0 46 9 46 27c0 15 -9 23 -22 23c-15 0 -25 -6 -37 -14l-38 26l18 65c-178 21 -273 167 -273 358 c0 225 132 361 320 361c172 0 240 -74 288 -206l-176 -69c-25 65 -49 106 -113 106c-81 0 -116 -81 -116 -192c0 -107 34 -192 118 -192c61 0 87 33 125 99z" glyph-name="Ccedilla" unicode="Ç"/>
<glyph horiz-adv-x="667" d="M614 0h-543v700h536v-163h-344v-93h207v-161h-207v-120h351v-163zM539 905l-157 -160h-128l72 160h213z" glyph-name="Eacute" unicode="É"/>
<glyph horiz-adv-x="756" d="M685 0h-158l-167 231c-31 43 -91 133 -109 164c5 -31 6 -124 6 -181v-214h-186v700h171l154 -207c32 -43 94 -136 109 -165c-5 31 -6 124 -6 181v191h186v-700zM592 896c0 -89 -50 -157 -131 -157c-37 0 -59 7 -89 25c-29 17 -46 29 -61 29c-22 0 -32 -16 -37 -51h-103 c0 89 50 157 131 157c37 0 59 -7 89 -25c29 -17 46 -29 61 -29c22 0 33 18 37 51h103z" glyph-name="Ntilde" unicode="Ñ"/>
<glyph horiz-adv-x="732" d="M690 351c0 -233 -135 -362 -325 -362s-323 127 -323 360s135 362 325 362s323 -127 323 -360zM489 349c0 126 -46 193 -124 193s-122 -65 -122 -191s46 -193 124 -193s122 65 122 191zM574 836c0 -46 -42 -86 -88 -86c-48 0 -90 40 -90 86c0 49 42 88 90 88 c46 0 88 -39 88 -88zM336 836c0 -46 -42 -86 -89 -86s-89 40 -89 86c0 49 42 88 89 88s89 -39 89 -88z" glyph-name="Odieresis" unicode="Ö"/>
<glyph horiz-adv-x="748" d="M681 299c0 -222 -133 -310 -309 -310s-305 88 -305 310v401h198v-401c0 -86 34 -139 110 -139s108 53 108 139v401h198v-401zM582 836c0 -46 -42 -86 -88 -86c-48 0 -90 40 -90 86c0 49 42 88 90 88c46 0 88 -39 88 -88zM344 836c0 -46 -42 -86 -89 -86s-89 40 -89 86 c0 49 42 88 89 88s89 -39 89 -88z" glyph-name="Udieresis" unicode="Ü"/>
<glyph horiz-adv-x="558" d="M506 0h-170v35c-34 -26 -80 -46 -128 -46c-102 0 -170 63 -170 181c0 113 78 171 189 171c48 0 80 -9 109 -22v26c0 46 -25 62 -74 62c-54 0 -95 -10 -146 -38l-47 119c64 31 135 48 226 48c147 0 211 -73 211 -195v-341zM336 142v72c-20 9 -43 15 -77 15 c-37 0 -56 -20 -56 -56c0 -33 17 -57 56 -57c30 0 60 12 77 26zM475 755l-157 -160h-128l72 160h213z" glyph-name="aacute" unicode="á"/>
<glyph horiz-adv-x="558" d="M506 0h-170v35c-34 -26 -80 -46 -128 -46c-102 0 -170 63 -170 181c0 113 78 171 189 171c48 0 80 -9 109 -22v26c0 46 -25 62 -74 62c-54 0 -95 -10 -146 -38l-47 119c64 31 135 48 226 48c147 0 211 -73 211 -195v-341zM336 142v72c-20 9 -43 15 -77 15 c-37 0 -56 -20 -56 -56c0 -33 17 -57 56 -57c30 0 60 12 77 26zM377 595h-128l-157 160h213z" glyph-name="agrave" unicode="à"/>
<glyph horiz-adv-x="558" d="M506 0h-170v35c-34 -26 -80 -46 -128 -46c-102 0 -170 63 -170 181c0 113 78 171 189 171c48 0 80 -9 109 -22v26c0 46 -25 62 -74 62c-54 0 -95 -10 -146 -38l-47 119c64 31 135 48 226 48c147 0 211 -73 211 -195v-341zM336 142v72c-20 9 -43 15 -77 15 c-37 0 -56 -20 -56 -56c0 -33 17 -57 56 -57c30 0 60 12 77 26zM482 590h-120l-83 64l-83 -64h-118l131 160h142z" glyph-name="acircumflex" unicode="â"/>
<glyph horiz-adv-x="558" d="M506 0h-170v35c-34 -26 -80 -46 -128 -46c-102 0 -170 63 -170 181c0 113 78 171 189 171c48 0 80 -9 109 -22v26c0 46 -25 62 -74 62c-54 0 -95 -10 -146 -38l-47 119c64 31 135 48 226 48c147 0 211 -73 211 -195v-341zM336 142v72c-20 9 -43 15 -77 15 c-37 0 -56 -20 -56 -56c0 -33 17 -57 56 -57c30 0 60 12 77 26zM486 681c0 -46 -42 -86 -88 -86c-48 0 -90 40 -90 86c0 49 42 88 90 88c46 0 88 -39 88 -88zM248 681c0 -46 -42 -86 -89 -86s-89 40 -89 86c0 49 42 88 89 88s89 -39 89 -88z" glyph-name="adieresis" unicode="ä"/>
<glyph horiz-adv-x="558" d="M506 0h-170v35c-34 -26 -80 -46 -128 -46c-102 0 -170 63 -170 181c0 113 78 171 189 171c48 0 80 -9 109 -22v26c0 46 -25 62 -74 62c-54 0 -95 -10 -146 -38l-47 119c64 31 135 48 226 48c147 0 211 -73 211 -195v-341zM336 142v72c-20 9 -43 15 -77 15 c-37 0 -56 -20 -56 -56c0 -33 17 -57 56 -57c30 0 60 12 77 26zM494 749c0 -89 -50 -157 -131 -157c-37 0 -59 7 -89 25c-29 17 -46 29 -61 29c-22 0 -32 -16 -37 -51h-103c0 89 50 157 131 157c37 0 59 -7 89 -25c29 -17 46 -29 61 -29c22 0 33 18 37 51h103z" glyph-name="atilde" unicode="ã"/>
<glyph horiz-adv-x="558" d="M506 0h-170v35c-34 -26 -80 -46 -128 -46c-102 0 -170 63 -170 181c0 113 78 171 189 171c48 0 80 -9 109 -22v26c0 46 -25 62 -74 62c-54 0 -95 -10 -146 -38l-47 119c64 31 135 48 226 48c147 0 211 -73 211 -195v-341zM336 142v72c-20 9 -43 15 -77 15 c-37 0 -56 -20 -56 -56c0 -33 17 -57 56 -57c30 0 60 12 77 26zM423 733c0 -79 -63 -138 -142 -138s-142 59 -142 138s63 139 142 139s142 -60 142 -139zM336 733c0 36 -21 60 -55 60s-55 -24 -55 -60s21 -59 55 -59s55 23 55 59z" glyph-name="aring" unicode="å"/>
<glyph horiz-adv-x="520" d="M492 114c-59 -88 -115 -123 -204 -125l-9 -31c10 5 26 9 42 9c50 0 78 -29 78 -73c0 -54 -39 -87 -111 -87c-57 0 -106 16 -147 36l19 46c37 -17 72 -24 101 -24c28 0 46 9 46 27c0 15 -9 23 -22 23c-15 0 -25 -6 -37 -14l-38 26l18 66c-122 21 -193 115 -193 271 c0 161 82 272 250 272c99 0 156 -46 202 -120l-124 -94c-25 46 -42 68 -81 68c-46 0 -69 -46 -69 -129s25 -126 74 -126c34 0 58 19 91 68z" glyph-name="ccedilla" unicode="ç"/>
<glyph horiz-adv-x="544" d="M509 246c0 -15 0 -26 -1 -35h-308c6 -58 40 -84 89 -84c46 0 84 10 136 37l69 -115c-65 -38 -132 -60 -214 -60c-158 0 -245 112 -245 273c0 181 102 274 240 274c144 0 234 -95 234 -290zM350 323c-9 53 -27 80 -80 80c-41 0 -64 -28 -70 -80h150zM485 755l-157 -160 h-128l72 160h213z" glyph-name="eacute" unicode="é"/>
<glyph horiz-adv-x="544" d="M509 246c0 -15 0 -26 -1 -35h-308c6 -58 40 -84 89 -84c46 0 84 10 136 37l69 -115c-65 -38 -132 -60 -214 -60c-158 0 -245 112 -245 273c0 181 102 274 240 274c144 0 234 -95 234 -290zM350 323c-9 53 -27 80 -80 80c-41 0 -64 -28 -70 -80h150zM352 595h-128 l-157 160h213z" glyph-name="egrave" unicode="è"/>
<glyph horiz-adv-x="544" d="M509 246c0 -15 0 -26 -1 -35h-308c6 -58 40 -84 89 -84c46 0 84 10 136 37l69 -115c-65 -38 -132 -60 -214 -60c-158 0 -245 112 -245 273c0 181 102 274 240 274c144 0 234 -95 234 -290zM350 323c-9 53 -27 80 -80 80c-41 0 -64 -28 -70 -80h150zM478 585h-120l-83 64 l-83 -64h-118l131 160h142z" glyph-name="ecircumflex" unicode="ê"/>
<glyph horiz-adv-x="544" d="M509 246c0 -15 0 -26 -1 -35h-308c6 -58 40 -84 89 -84c46 0 84 10 136 37l69 -115c-65 -38 -132 -60 -214 -60c-158 0 -245 112 -245 273c0 181 102 274 240 274c144 0 234 -95 234 -290zM350 323c-9 53 -27 80 -80 80c-41 0 -64 -28 -70 -80h150zM485 681 c0 -46 -42 -86 -88 -86c-48 0 -90 40 -90 86c0 49 42 88 90 88c46 0 88 -39 88 -88zM247 681c0 -46 -42 -86 -89 -86s-89 40 -89 86c0 49 42 88 89 88s89 -39 89 -88z" glyph-name="edieresis" unicode="ë"/>
<glyph horiz-adv-x="302" d="M241 0h-180v525h180v-525zM358 755l-157 -160h-128l72 160h213z" glyph-name="iacute" unicode="í"/>
<glyph horiz-adv-x="302" d="M241 0h-180v525h180v-525zM233 595h-128l-157 160h213z" glyph-name="igrave" unicode="ì"/>
<glyph horiz-adv-x="302" d="M241 0h-180v525h180v-525zM353 580h-120l-83 64l-83 -64h-118l131 160h142z" glyph-name="icircumflex" unicode="î"/>
<glyph horiz-adv-x="302" d="M241 0h-180v525h180v-525zM359 676c0 -46 -42 -86 -88 -86c-48 0 -90 40 -90 86c0 49 42 88 90 88c46 0 88 -39 88 -88zM121 676c0 -46 -42 -86 -89 -86s-89 40 -89 86c0 49 42 88 89 88s89 -39 89 -88z" glyph-name="idieresis" unicode="ï"/>
<glyph horiz-adv-x="590" d="M538 0h-181v298c0 68 -23 86 -60 86c-38 0 -61 -18 -61 -84v-300h-180v525h180v-35c33 25 70 46 132 46c115 0 170 -77 170 -215v-321zM515 749c0 -89 -50 -157 -131 -157c-37 0 -59 7 -89 25c-29 17 -46 29 -61 29c-22 0 -32 -16 -37 -51h-103c0 89 50 157 131 157 c37 0 59 -7 89 -25c29 -17 46 -29 61 -29c22 0 33 18 37 51h103z" glyph-name="ntilde" unicode="ñ"/>
<glyph horiz-adv-x="569" d="M534 263c0 -181 -105 -274 -250 -274s-249 93 -249 274c0 183 104 273 249 273s250 -90 250 -273zM355 263c0 89 -24 127 -71 127s-71 -38 -71 -127c0 -87 24 -128 71 -128s71 41 71 128zM496 755l-157 -160h-128l72 160h213z" glyph-name="oacute" unicode="ó"/>
<glyph horiz-adv-x="569" d="M534 263c0 -181 -105 -274 -250 -274s-249 93 -249 274c0 183 104 273 249 273s250 -90 250 -273zM355 263c0 89 -24 127 -71 127s-71 -38 -71 -127c0 -87 24 -128 71 -128s71 41 71 128zM353 595h-128l-157 160h213z" glyph-name="ograve" unicode="ò"/>
<glyph horiz-adv-x="569" d="M534 263c0 -181 -105 -274 -250 -274s-249 93 -249 274c0 183 104 273 249 273s250 -90 250 -273zM355 263c0 89 -24 127 -71 127s-71 -38 -71 -127c0 -87 24 -128 71 -128s71 41 71 128zM486 585h-120l-83 64l-83 -64h-118l131 160h142z" glyph-name="ocircumflex" unicode="ô"/>
<glyph horiz-adv-x="569" d="M534 263c0 -181 -105 -274 -250 -274s-249 93 -249 274c0 183 104 273 249 273s250 -90 250 -273zM355 263c0 89 -24 127 -71 127s-71 -38 -71 -127c0 -87 24 -128 71 -128s71 41 71 128zM492 676c0 -46 -42 -86 -88 -86c-48 0 -90 40 -90 86c0 49 42 88 90 88 c46 0 88 -39 88 -88zM254 676c0 -46 -42 -86 -89 -86s-89 40 -89 86c0 49 42 88 89 88s89 -39 89 -88z" glyph-name="odieresis" unicode="ö"/>
<glyph horiz-adv-x="569" d="M534 263c0 -181 -105 -274 -250 -274s-249 93 -249 274c0 183 104 273 249 273s250 -90 250 -273zM355 263c0 89 -24 127 -71 127s-71 -38 -71 -127c0 -87 24 -128 71 -128s71 41 71 128zM495 749c0 -89 -50 -157 -131 -157c-37 0 -59 7 -89 25c-29 17 -46 29 -61 29 c-22 0 -32 -16 -37 -51h-103c0 89 50 157 131 157c37 0 59 -7 89 -25c29 -17 46 -29 61 -29c22 0 33 18 37 51h103z" glyph-name="otilde" unicode="õ"/>
<glyph horiz-adv-x="590" d="M534 0h-181v35c-32 -25 -70 -46 -131 -46c-115 0 -170 77 -170 215v321h181v-298c0 -68 23 -86 60 -86s60 18 60 84v300h181v-525zM503 755l-157 -160h-128l72 160h213z" glyph-name="uacute" unicode="ú"/>
<glyph horiz-adv-x="590" d="M534 0h-181v35c-32 -25 -70 -46 -131 -46c-115 0 -170 77 -170 215v321h181v-298c0 -68 23 -86 60 -86s60 18 60 84v300h181v-525zM370 595h-128l-157 160h213z" glyph-name="ugrave" unicode="ù"/>
<glyph horiz-adv-x="590" d="M534 0h-181v35c-32 -25 -70 -46 -131 -46c-115 0 -170 77 -170 215v321h181v-298c0 -68 23 -86 60 -86s60 18 60 84v300h181v-525zM498 595h-120l-83 64l-83 -64h-118l131 160h142z" glyph-name="ucircumflex" unicode="û"/>
<glyph horiz-adv-x="590" d="M534 0h-181v35c-32 -25 -70 -46 -131 -46c-115 0 -170 77 -170 215v321h181v-298c0 -68 23 -86 60 -86s60 18 60 84v300h181v-525zM504 686c0 -46 -42 -86 -88 -86c-48 0 -90 40 -90 86c0 49 42 88 90 88c46 0 88 -39 88 -88zM266 686c0 -46 -42 -86 -89 -86 s-89 40 -89 86c0 49 42 88 89 88s89 -39 89 -88z" glyph-name="udieresis" unicode="ü"/>
<glyph horiz-adv-x="526" d="M481 494c0 -128 -95 -219 -218 -219c-122 0 -218 91 -218 219c0 125 96 217 218 217c123 0 218 -92 218 -217zM353 494c0 59 -37 96 -90 96c-52 0 -90 -37 -90 -96c0 -62 38 -98 90 -98c53 0 90 36 90 98z" glyph-name="degree" unicode="°"/>
<glyph horiz-adv-x="836" d="M779 350c0 -205 -156 -361 -361 -361s-361 156 -361 361s156 361 361 361s361 -156 361 -361zM705 350c0 174 -123 290 -287 290s-287 -116 -287 -290s123 -290 287 -290s287 116 287 290zM603 163h-121l-64 132h-44v-132h-107v392h176c92 0 153 -35 153 -128 c0 -59 -28 -95 -71 -115zM488 424c0 25 -14 42 -48 42h-66v-85h64c36 0 50 15 50 43z" glyph-name="registered" unicode="®"/>
<glyph horiz-adv-x="836" d="M779 350c0 -205 -156 -361 -361 -361s-361 156 -361 361s156 361 361 361s361 -156 361 -361zM705 350c0 174 -123 290 -287 290s-287 -116 -287 -290s123 -290 287 -290s287 116 287 290zM582 253c-27 -51 -70 -101 -163 -101c-117 0 -179 86 -179 202 c0 126 74 202 179 202c97 0 135 -41 162 -115l-99 -39c-14 37 -27 60 -63 60c-46 0 -65 -46 -65 -108c0 -60 19 -107 66 -107c34 0 49 18 70 55z" glyph-name="copyright" unicode="©"/>
<glyph d="M811 354l-159 -137c-16 -13 -30 -14 -40 -7c-13 9 -15 21 -10 43l8 36h-132v-113l36 8c23 5 34 3 43 -10c7 -10 6 -24 -7 -40l-137 -159l-137 159c-13 16 -14 30 -7 40c9 13 20 15 43 10l36 -8v113h-132l8 -36c5 -23 3 -34 -10 -43c-10 -7 -24 -6 -40 7l-159 137l159 137 c16 13 30 14 40 7c13 -9 15 -20 10 -43l-8 -36h132v105l-36 -8c-23 -5 -34 -3 -43 10c-7 10 -6 24 7 40l137 159l137 -159c13 -16 14 -30 7 -40c-9 -13 -20 -15 -43 -10l-36 8v-105h132l-8 36c-5 23 -3 34 10 43c10 7 24 6 40 -7z" glyph-name="plusminus" unicode="±"/>
<glyph horiz-adv-x="820" d="M805 354l-192 -168c-19 -14 -35 -16 -46 -8c-15 11 -17 23 -12 50l9 46h-308l9 -46c5 -27 3 -39 -12 -50c-11 -8 -27 -6 -46 8l-192 168l192 168c19 14 35 16 46 8c15 -11 17 -22 12 -50l-9 -46h308l-9 46c-5 28 -3 39 12 50c11 8 27 6 46 -8z" glyph-name="mu" unicode="µ"/>
<glyph horiz-adv-x="660" d="M645 354l-192 -168c-19 -14 -35 -16 -46 -8c-15 11 -17 23 -12 50l9 46h-359v160h359l-9 46c-5 28 -3 39 12 50c11 8 27 6 46 -8z" glyph-name="logicalnot" unicode="¬"/>
<glyph horiz-adv-x="165" glyph-name="nbspace" unicode=" "/>
<glyph horiz-adv-x="762" d="M733 0h-210l-38 123h-210l-38 -123h-208l254 700h196zM438 277l-13 46c-25 90 -36 128 -45 175c-9 -47 -20 -86 -45 -175l-13 -46h116zM454 745h-128l-157 160h213z" glyph-name="Agrave" unicode="À"/>
<glyph horiz-adv-x="762" d="M733 0h-210l-38 123h-210l-38 -123h-208l254 700h196zM438 277l-13 46c-25 90 -36 128 -45 175c-9 -47 -20 -86 -45 -175l-13 -46h116zM592 899c0 -89 -50 -157 -131 -157c-37 0 -59 7 -89 25c-29 17 -46 29 -61 29c-22 0 -32 -16 -37 -51h-103c0 89 50 157 131 157 c37 0 59 -7 89 -25c29 -17 46 -29 61 -29c22 0 33 18 37 51h103z" glyph-name="Atilde" unicode="Ã"/>
<glyph horiz-adv-x="732" d="M690 351c0 -233 -135 -362 -325 -362s-323 127 -323 360s135 362 325 362s323 -127 323 -360zM489 349c0 126 -46 193 -124 193s-122 -65 -122 -191s46 -193 124 -193s122 65 122 191zM571 899c0 -89 -50 -157 -131 -157c-37 0 -59 7 -89 25c-29 17 -46 29 -61 29 c-22 0 -32 -16 -37 -51h-103c0 89 50 157 131 157c37 0 59 -7 89 -25c29 -17 46 -29 61 -29c22 0 33 18 37 51h103z" glyph-name="Otilde" unicode="Õ"/>
<glyph d="M811 354l-159 -137c-16 -13 -30 -14 -40 -7c-13 9 -15 21 -10 43l8 36h-132v-113l36 8c23 5 34 3 43 -10c7 -10 6 -24 -7 -40l-137 -159l-137 159c-13 16 -14 30 -7 40c9 13 20 15 43 10l36 -8v113h-132l8 -36c5 -23 3 -34 -10 -43c-10 -7 -24 -6 -40 7l-159 137l159 137 c16 13 30 14 40 7c13 -9 15 -20 10 -43l-8 -36h132v105l-36 -8c-23 -5 -34 -3 -43 10c-7 10 -6 24 7 40l137 159l137 -159c13 -16 14 -30 7 -40c-9 -13 -20 -15 -43 -10l-36 8v-105h132l-8 36c-5 23 -3 34 10 43c10 7 24 6 40 -7z" glyph-name="divide" unicode="÷"/>
<glyph horiz-adv-x="762" d="M733 0h-210l-38 123h-210l-38 -123h-208l254 700h196zM438 277l-13 46c-25 90 -36 128 -45 175c-9 -47 -20 -86 -45 -175l-13 -46h116zM583 763h-120l-83 64l-83 -64h-118l131 160h142z" glyph-name="Acircumflex" unicode="Â"/>
<glyph horiz-adv-x="667" d="M614 0h-543v700h536v-163h-344v-93h207v-161h-207v-120h351v-163zM544 745h-120l-83 64l-83 -64h-118l131 160h142z" glyph-name="Ecircumflex" unicode="Ê"/>
<glyph horiz-adv-x="762" d="M733 0h-210l-38 123h-210l-38 -123h-208l254 700h196zM438 277l-13 46c-25 90 -36 128 -45 175c-9 -47 -20 -86 -45 -175l-13 -46h116zM592 905l-157 -160h-128l72 160h213z" glyph-name="Aacute" unicode="Á"/>
<glyph horiz-adv-x="667" d="M614 0h-543v700h536v-163h-344v-93h207v-161h-207v-120h351v-163zM549 836c0 -46 -42 -86 -88 -86c-48 0 -90 40 -90 86c0 49 42 88 90 88c46 0 88 -39 88 -88zM311 836c0 -46 -42 -86 -89 -86s-89 40 -89 86c0 49 42 88 89 88s89 -39 89 -88z" glyph-name="Edieresis" unicode="Ë"/>
<glyph horiz-adv-x="667" d="M614 0h-543v700h536v-163h-344v-93h207v-161h-207v-120h351v-163zM419 745h-128l-157 160h213z" glyph-name="Egrave" unicode="È"/>
<glyph horiz-adv-x="350" d="M274 0h-198v700h198v-700zM391 905l-157 -160h-128l72 160h213z" glyph-name="Iacute" unicode="Í"/>
<glyph horiz-adv-x="350" d="M274 0h-198v700h198v-700zM377 730h-120l-83 64l-83 -64h-118l131 160h142z" glyph-name="Icircumflex" unicode="Î"/>
<glyph horiz-adv-x="350" d="M274 0h-198v700h198v-700zM383 823c0 -46 -42 -86 -88 -86c-48 0 -90 40 -90 86c0 49 42 88 90 88c46 0 88 -39 88 -88zM145 823c0 -46 -42 -86 -89 -86s-89 40 -89 86c0 49 42 88 89 88s89 -39 89 -88z" glyph-name="Idieresis" unicode="Ï"/>
<glyph horiz-adv-x="350" d="M274 0h-198v700h198v-700zM248 745h-128l-157 160h213z" glyph-name="Igrave" unicode="Ì"/>
<glyph horiz-adv-x="732" d="M690 351c0 -233 -135 -362 -325 -362s-323 127 -323 360s135 362 325 362s323 -127 323 -360zM489 349c0 126 -46 193 -124 193s-122 -65 -122 -191s46 -193 124 -193s122 65 122 191zM575 905l-157 -160h-128l72 160h213z" glyph-name="Oacute" unicode="Ó"/>
<glyph horiz-adv-x="732" d="M690 351c0 -233 -135 -362 -325 -362s-323 127 -323 360s135 362 325 362s323 -127 323 -360zM489 349c0 126 -46 193 -124 193s-122 -65 -122 -191s46 -193 124 -193s122 65 122 191zM568 740h-120l-83 64l-83 -64h-118l131 160h142z" glyph-name="Ocircumflex" unicode="Ô"/>
<glyph horiz-adv-x="732" d="M690 351c0 -233 -135 -362 -325 -362s-323 127 -323 360s135 362 325 362s323 -127 323 -360zM489 349c0 126 -46 193 -124 193s-122 -65 -122 -191s46 -193 124 -193s122 65 122 191zM432 745h-128l-157 160h213z" glyph-name="Ograve" unicode="Ò"/>
<glyph horiz-adv-x="748" d="M681 299c0 -222 -133 -310 -309 -310s-305 88 -305 310v401h198v-401c0 -86 34 -139 110 -139s108 53 108 139v401h198v-401zM586 890l-157 -160h-128l72 160h213z" glyph-name="Uacute" unicode="Ú"/>
<glyph horiz-adv-x="748" d="M681 299c0 -222 -133 -310 -309 -310s-305 88 -305 310v401h198v-401c0 -86 34 -139 110 -139s108 53 108 139v401h198v-401zM576 745h-120l-83 64l-83 -64h-118l131 160h142z" glyph-name="Ucircumflex" unicode="Û"/>
<glyph horiz-adv-x="748" d="M681 299c0 -222 -133 -310 -309 -310s-305 88 -305 310v401h198v-401c0 -86 34 -139 110 -139s108 53 108 139v401h198v-401zM448 730h-128l-157 160h213z" glyph-name="Ugrave" unicode="Ù"/>
</font>
</defs>
</svg>
